<svg width="30" height="24" viewBox="0 0 30 24" fill="none" xmlns="http://www.w3.org/2000/svg">
<path d="M26.4495 5.9955C26.469 6.258 26.469 6.51901 26.469 6.78001C26.469 14.7675 20.3895 23.9715 9.279 23.9715C5.856 23.9715 2.676 22.98 0 21.258C0.486 21.3135 0.954 21.333 1.4595 21.333C4.17899 21.3396 6.82147 20.4302 8.961 18.7515C7.70013 18.7287 6.47786 18.3127 5.46486 17.5616C4.45185 16.8105 3.69868 15.7619 3.3105 14.562C3.684 14.6175 4.059 14.655 4.452 14.655C4.9935 14.655 5.538 14.58 6.0435 14.4495C4.67514 14.1732 3.44471 13.4315 2.56143 12.3505C1.67815 11.2695 1.19654 9.91598 1.1985 8.52001V8.445C2.004 8.89351 2.9385 9.174 3.9285 9.2115C3.09913 8.66038 2.41908 7.91254 1.94901 7.03469C1.47894 6.15684 1.23347 5.17629 1.2345 4.1805C1.2345 3.0585 1.533 2.0295 2.0565 1.1325C3.57471 3.00003 5.46825 4.52785 7.6145 5.61699C9.76075 6.70614 12.1118 7.33233 14.5155 7.45501C14.4225 7.005 14.3655 6.5385 14.3655 6.0705C14.3651 5.27695 14.5211 4.49109 14.8246 3.75786C15.1281 3.02464 15.5732 2.35842 16.1343 1.79729C16.6954 1.23616 17.3616 0.79112 18.0949 0.487621C18.8281 0.184122 19.6139 0.0281098 20.4075 0.0285042C22.1475 0.0285042 23.718 0.757504 24.822 1.9365C26.1747 1.67493 27.4718 1.18114 28.656 0.477004C28.2051 1.87323 27.2606 3.05716 25.9995 3.807C27.1992 3.67017 28.3717 3.35468 29.478 2.871C28.6517 4.07565 27.6278 5.13202 26.4495 5.9955Z" fill="white" fill-opacity="0.78"/>
</svg>
